<mxfile host="app.diagrams.net" agent="Mozilla/5.0 (Windows NT 10.0; Win64; x64) AppleWebKit/537.36 (KHTML, like Gecko) Chrome/126.0.0.0 Safari/537.36" version="24.7.4">
  <diagram id="C5RBs43oDa-KdzZeNtuy" name="Page-1">
    <mxGraphModel dx="1240" dy="835" grid="1" gridSize="10" guides="1" tooltips="1" connect="1" arrows="1" fold="1" page="1" pageScale="1" pageWidth="827" pageHeight="1169" math="0" shadow="0">
      <root>
        <mxCell id="WIyWlLk6GJQsqaUBKTNV-0" />
        <mxCell id="WIyWlLk6GJQsqaUBKTNV-1" parent="WIyWlLk6GJQsqaUBKTNV-0" />
        <mxCell id="kzj5SYHrYNJim-2h-Fth-1" value="" style="edgeStyle=orthogonalEdgeStyle;rounded=0;orthogonalLoop=1;jettySize=auto;html=1;" edge="1" parent="WIyWlLk6GJQsqaUBKTNV-1" source="WIyWlLk6GJQsqaUBKTNV-3" target="kzj5SYHrYNJim-2h-Fth-0">
          <mxGeometry relative="1" as="geometry" />
        </mxCell>
        <mxCell id="WIyWlLk6GJQsqaUBKTNV-3" value="계약완료" style="rounded=1;whiteSpace=wrap;html=1;fontSize=12;glass=0;strokeWidth=1;shadow=0;" parent="WIyWlLk6GJQsqaUBKTNV-1" vertex="1">
          <mxGeometry x="160" y="80" width="120" height="40" as="geometry" />
        </mxCell>
        <mxCell id="WIyWlLk6GJQsqaUBKTNV-4" value="Yes" style="rounded=0;html=1;jettySize=auto;orthogonalLoop=1;fontSize=11;endArrow=block;endFill=0;endSize=8;strokeWidth=1;shadow=0;labelBackgroundColor=none;edgeStyle=orthogonalEdgeStyle;" parent="WIyWlLk6GJQsqaUBKTNV-1" target="WIyWlLk6GJQsqaUBKTNV-10" edge="1">
          <mxGeometry y="20" relative="1" as="geometry">
            <mxPoint as="offset" />
            <mxPoint x="260" y="510" as="sourcePoint" />
          </mxGeometry>
        </mxCell>
        <mxCell id="WIyWlLk6GJQsqaUBKTNV-8" value="No" style="rounded=0;html=1;jettySize=auto;orthogonalLoop=1;fontSize=11;endArrow=block;endFill=0;endSize=8;strokeWidth=1;shadow=0;labelBackgroundColor=none;edgeStyle=orthogonalEdgeStyle;" parent="WIyWlLk6GJQsqaUBKTNV-1" source="WIyWlLk6GJQsqaUBKTNV-10" target="WIyWlLk6GJQsqaUBKTNV-11" edge="1">
          <mxGeometry x="0.3333" y="20" relative="1" as="geometry">
            <mxPoint as="offset" />
          </mxGeometry>
        </mxCell>
        <mxCell id="WIyWlLk6GJQsqaUBKTNV-9" value="Yes" style="edgeStyle=orthogonalEdgeStyle;rounded=0;html=1;jettySize=auto;orthogonalLoop=1;fontSize=11;endArrow=block;endFill=0;endSize=8;strokeWidth=1;shadow=0;labelBackgroundColor=none;" parent="WIyWlLk6GJQsqaUBKTNV-1" source="WIyWlLk6GJQsqaUBKTNV-10" target="WIyWlLk6GJQsqaUBKTNV-12" edge="1">
          <mxGeometry y="10" relative="1" as="geometry">
            <mxPoint as="offset" />
          </mxGeometry>
        </mxCell>
        <mxCell id="WIyWlLk6GJQsqaUBKTNV-10" value="Bulb&lt;br&gt;burned out?" style="rhombus;whiteSpace=wrap;html=1;shadow=0;fontFamily=Helvetica;fontSize=12;align=center;strokeWidth=1;spacing=6;spacingTop=-4;" parent="WIyWlLk6GJQsqaUBKTNV-1" vertex="1">
          <mxGeometry x="210" y="550" width="100" height="80" as="geometry" />
        </mxCell>
        <mxCell id="WIyWlLk6GJQsqaUBKTNV-11" value="Repair Lamp" style="rounded=1;whiteSpace=wrap;html=1;fontSize=12;glass=0;strokeWidth=1;shadow=0;" parent="WIyWlLk6GJQsqaUBKTNV-1" vertex="1">
          <mxGeometry x="200" y="690" width="120" height="40" as="geometry" />
        </mxCell>
        <mxCell id="WIyWlLk6GJQsqaUBKTNV-12" value="Replace Bulb" style="rounded=1;whiteSpace=wrap;html=1;fontSize=12;glass=0;strokeWidth=1;shadow=0;" parent="WIyWlLk6GJQsqaUBKTNV-1" vertex="1">
          <mxGeometry x="360" y="570" width="120" height="40" as="geometry" />
        </mxCell>
        <mxCell id="kzj5SYHrYNJim-2h-Fth-0" value="협력사 안내메일&lt;div&gt;- 하도급신고&lt;/div&gt;" style="rounded=1;whiteSpace=wrap;html=1;fontSize=12;glass=0;strokeWidth=1;shadow=0;" vertex="1" parent="WIyWlLk6GJQsqaUBKTNV-1">
          <mxGeometry x="360" y="80" width="120" height="40" as="geometry" />
        </mxCell>
        <mxCell id="kzj5SYHrYNJim-2h-Fth-14" value="" style="swimlane;startSize=0;fillColor=#DAE8FC;strokeColor=#6c8ebf;" vertex="1" parent="WIyWlLk6GJQsqaUBKTNV-1">
          <mxGeometry x="110" y="150" width="840" height="170" as="geometry" />
        </mxCell>
        <mxCell id="kzj5SYHrYNJim-2h-Fth-8" value="" style="edgeStyle=orthogonalEdgeStyle;rounded=0;orthogonalLoop=1;jettySize=auto;html=1;" edge="1" parent="kzj5SYHrYNJim-2h-Fth-14" source="kzj5SYHrYNJim-2h-Fth-6" target="kzj5SYHrYNJim-2h-Fth-7">
          <mxGeometry relative="1" as="geometry" />
        </mxCell>
        <mxCell id="kzj5SYHrYNJim-2h-Fth-6" value="하도급신고 목록&lt;div&gt;계약확인&lt;/div&gt;" style="rounded=1;whiteSpace=wrap;html=1;fontSize=12;glass=0;strokeWidth=1;shadow=0;" vertex="1" parent="kzj5SYHrYNJim-2h-Fth-14">
          <mxGeometry x="50" y="60" width="120" height="40" as="geometry" />
        </mxCell>
        <mxCell id="kzj5SYHrYNJim-2h-Fth-10" value="" style="edgeStyle=orthogonalEdgeStyle;rounded=0;orthogonalLoop=1;jettySize=auto;html=1;" edge="1" parent="kzj5SYHrYNJim-2h-Fth-14" source="kzj5SYHrYNJim-2h-Fth-7" target="kzj5SYHrYNJim-2h-Fth-9">
          <mxGeometry relative="1" as="geometry" />
        </mxCell>
        <mxCell id="kzj5SYHrYNJim-2h-Fth-7" value="착수시 등록&amp;nbsp;&lt;div&gt;클릭&lt;/div&gt;" style="rounded=1;whiteSpace=wrap;html=1;fontSize=12;glass=0;strokeWidth=1;shadow=0;" vertex="1" parent="kzj5SYHrYNJim-2h-Fth-14">
          <mxGeometry x="250" y="60" width="120" height="40" as="geometry" />
        </mxCell>
        <mxCell id="kzj5SYHrYNJim-2h-Fth-12" value="" style="edgeStyle=orthogonalEdgeStyle;rounded=0;orthogonalLoop=1;jettySize=auto;html=1;" edge="1" parent="kzj5SYHrYNJim-2h-Fth-14" source="kzj5SYHrYNJim-2h-Fth-9" target="kzj5SYHrYNJim-2h-Fth-11">
          <mxGeometry relative="1" as="geometry" />
        </mxCell>
        <mxCell id="kzj5SYHrYNJim-2h-Fth-9" value="등록화면의&lt;div&gt;하도급정보 입력저장&lt;/div&gt;" style="rounded=1;whiteSpace=wrap;html=1;fontSize=12;glass=0;strokeWidth=1;shadow=0;" vertex="1" parent="kzj5SYHrYNJim-2h-Fth-14">
          <mxGeometry x="450" y="60" width="120" height="40" as="geometry" />
        </mxCell>
        <mxCell id="kzj5SYHrYNJim-2h-Fth-11" value="하도급신고서 제출" style="rounded=1;whiteSpace=wrap;html=1;fontSize=12;glass=0;strokeWidth=1;shadow=0;" vertex="1" parent="kzj5SYHrYNJim-2h-Fth-14">
          <mxGeometry x="650" y="60" width="120" height="40" as="geometry" />
        </mxCell>
        <mxCell id="kzj5SYHrYNJim-2h-Fth-15" value="&lt;font style=&quot;font-size: 14px;&quot;&gt;&lt;b&gt;협력사&lt;/b&gt;&lt;/font&gt;" style="text;html=1;align=center;verticalAlign=middle;resizable=0;points=[];autosize=1;strokeColor=none;fillColor=none;" vertex="1" parent="kzj5SYHrYNJim-2h-Fth-14">
          <mxGeometry x="15" y="10" width="70" height="30" as="geometry" />
        </mxCell>
        <mxCell id="kzj5SYHrYNJim-2h-Fth-16" value="" style="swimlane;startSize=0;fillColor=#DAE8FC;strokeColor=#6c8ebf;" vertex="1" parent="WIyWlLk6GJQsqaUBKTNV-1">
          <mxGeometry x="110" y="380" width="840" height="170" as="geometry" />
        </mxCell>
        <mxCell id="kzj5SYHrYNJim-2h-Fth-17" value="" style="edgeStyle=orthogonalEdgeStyle;rounded=0;orthogonalLoop=1;jettySize=auto;html=1;" edge="1" parent="kzj5SYHrYNJim-2h-Fth-16" source="kzj5SYHrYNJim-2h-Fth-18" target="kzj5SYHrYNJim-2h-Fth-20">
          <mxGeometry relative="1" as="geometry" />
        </mxCell>
        <mxCell id="kzj5SYHrYNJim-2h-Fth-18" value="하도급신고 목록&lt;div&gt;계약확인&lt;/div&gt;" style="rounded=1;whiteSpace=wrap;html=1;fontSize=12;glass=0;strokeWidth=1;shadow=0;" vertex="1" parent="kzj5SYHrYNJim-2h-Fth-16">
          <mxGeometry x="50" y="60" width="120" height="40" as="geometry" />
        </mxCell>
        <mxCell id="kzj5SYHrYNJim-2h-Fth-19" value="" style="edgeStyle=orthogonalEdgeStyle;rounded=0;orthogonalLoop=1;jettySize=auto;html=1;" edge="1" parent="kzj5SYHrYNJim-2h-Fth-16" source="kzj5SYHrYNJim-2h-Fth-20" target="kzj5SYHrYNJim-2h-Fth-22">
          <mxGeometry relative="1" as="geometry" />
        </mxCell>
        <mxCell id="kzj5SYHrYNJim-2h-Fth-20" value="착수시 등록&amp;nbsp;&lt;div&gt;클릭&lt;/div&gt;" style="rounded=1;whiteSpace=wrap;html=1;fontSize=12;glass=0;strokeWidth=1;shadow=0;" vertex="1" parent="kzj5SYHrYNJim-2h-Fth-16">
          <mxGeometry x="250" y="60" width="120" height="40" as="geometry" />
        </mxCell>
        <mxCell id="kzj5SYHrYNJim-2h-Fth-21" value="" style="edgeStyle=orthogonalEdgeStyle;rounded=0;orthogonalLoop=1;jettySize=auto;html=1;" edge="1" parent="kzj5SYHrYNJim-2h-Fth-16" source="kzj5SYHrYNJim-2h-Fth-22" target="kzj5SYHrYNJim-2h-Fth-23">
          <mxGeometry relative="1" as="geometry" />
        </mxCell>
        <mxCell id="kzj5SYHrYNJim-2h-Fth-22" value="등록화면의&lt;div&gt;하도급정보 입력저장&lt;/div&gt;" style="rounded=1;whiteSpace=wrap;html=1;fontSize=12;glass=0;strokeWidth=1;shadow=0;" vertex="1" parent="kzj5SYHrYNJim-2h-Fth-16">
          <mxGeometry x="450" y="60" width="120" height="40" as="geometry" />
        </mxCell>
        <mxCell id="kzj5SYHrYNJim-2h-Fth-23" value="하도급신고서 제출" style="rounded=1;whiteSpace=wrap;html=1;fontSize=12;glass=0;strokeWidth=1;shadow=0;" vertex="1" parent="kzj5SYHrYNJim-2h-Fth-16">
          <mxGeometry x="650" y="60" width="120" height="40" as="geometry" />
        </mxCell>
        <mxCell id="kzj5SYHrYNJim-2h-Fth-24" value="&lt;font style=&quot;font-size: 14px;&quot;&gt;&lt;b&gt;협력사&lt;/b&gt;&lt;/font&gt;" style="text;html=1;align=center;verticalAlign=middle;resizable=0;points=[];autosize=1;strokeColor=none;fillColor=none;" vertex="1" parent="kzj5SYHrYNJim-2h-Fth-16">
          <mxGeometry x="15" y="10" width="70" height="30" as="geometry" />
        </mxCell>
      </root>
    </mxGraphModel>
  </diagram>
</mxfile>
